<svg width="1024" height="1024" viewBox="0 0 1024 1024" fill="none" xmlns="http://www.w3.org/2000/svg">
<rect width="1024" height="1024" fill="#F06859"/>
<path d="M654.345 265C619.339 265 584.333 272.643 552.827 287.342C520.738 301.453 492.149 323.207 469.395 349.664C416.886 410.811 401.133 454.907 352.124 454.907C297.865 454.907 287.946 410.811 226.102 410.811C212.683 410.811 199.264 413.163 187.011 417.866C174.759 422.57 163.09 430.213 153.755 439.621C144.42 449.028 136.836 460.199 131.585 472.546C126.334 484.893 124 498.415 124 511.938C124 525.461 126.917 538.984 131.585 551.331C136.836 563.678 144.42 574.849 153.755 584.256C163.09 593.663 174.759 601.306 187.011 606.01C199.264 610.713 212.683 613.653 226.102 613.065C287.946 613.065 297.865 568.969 352.124 568.969C401.133 568.969 416.886 613.065 469.395 674.212C496.233 705.373 530.656 729.479 569.163 743.59C607.67 757.7 649.094 762.404 689.935 756.524C730.776 750.645 769.282 734.182 801.955 709.489C834.627 684.795 860.882 651.87 877.802 614.241C894.722 576.612 902.306 535.456 899.389 493.712C896.472 452.555 883.053 412.575 860.882 377.886C838.711 343.197 808.373 314.388 772.2 294.397C736.026 275.583 695.186 265 654.345 265ZM654.345 614.241C634.508 614.241 614.671 608.362 598.335 597.191C581.415 586.02 568.58 570.145 560.995 551.331C553.41 532.516 551.077 511.938 555.161 492.536C559.245 472.546 568.58 454.319 583.166 440.208C597.752 426.098 615.255 416.103 635.092 412.575C654.929 408.459 675.349 410.811 693.435 418.454C712.105 426.098 727.858 439.033 738.944 456.083C750.029 473.134 755.863 492.536 755.863 512.526C755.863 539.572 745.361 565.441 726.108 584.844C706.855 603.658 681.183 614.241 654.345 614.241Z" fill="white"/>
</svg>
